<?xml version="1.0" encoding="utf-8"?>
<!-- Generator: Adobe Illustrator 16.0.0, SVG Export Plug-In . SVG Version: 6.00 Build 0)  -->
<!DOCTYPE svg PUBLIC "-//W3C//DTD SVG 1.1//EN" "http://www.w3.org/Graphics/SVG/1.1/DTD/svg11.dtd">
<svg version="1.1" id="Ebene_1" xmlns="http://www.w3.org/2000/svg" xmlns:xlink="http://www.w3.org/1999/xlink" x="0px" y="0px"
	 width="864.661px" height="226.004px" viewBox="0 0 864.661 226.004" enable-background="new 0 0 864.661 226.004"
	 xml:space="preserve">
<g>
	<path fill="#33CCFF" d="M83.13,113.007c0.184,5.353-0.054,10.491-0.71,15.415c-0.658,4.925-1.825,9.525-3.502,13.8
		c-1.678,4.276-3.908,8.187-6.693,11.73c-2.786,3.545-6.243,6.613-10.371,9.206c-4.13,2.593-8.961,4.654-14.494,6.184
		c-5.534,1.529-11.859,2.416-18.975,2.66l-23.912,0.821L0.64,61.206l28.78-0.988c17.421-0.598,30.569,3.439,39.447,12.112
		C77.742,81.001,82.497,94.561,83.13,113.007z M67.199,114.666c-0.272-7.913-1.243-14.578-2.91-19.993
		c-1.669-5.415-4.069-9.749-7.201-13.005c-3.133-3.255-7.003-5.559-11.609-6.912c-4.607-1.351-9.984-1.922-16.133-1.711
		l-13.066,0.449l2.942,85.655l11.358-0.39C55.972,157.886,68.179,143.189,67.199,114.666z"/>
	<path fill="#33CCFF" d="M142.581,168.079l-0.738-11.517c-4.51,4.772-9.136,8.266-13.875,10.48
		c-4.742,2.215-9.758,3.414-15.053,3.595c-4.897,0.168-9.103-0.315-12.618-1.448c-3.517-1.132-6.437-2.757-8.76-4.872
		c-2.325-2.113-4.064-4.633-5.219-7.559c-1.156-2.923-1.792-6.122-1.911-9.595c-0.295-8.596,2.676-15.439,8.914-20.527
		c6.238-5.087,15.619-7.846,28.145-8.277l17.763-0.61l-0.258-7.515c-0.174-5.066-1.936-9.067-5.286-12.002
		c-3.35-2.933-8.355-4.287-15.016-4.058c-4.84,0.166-9.588,0.871-14.249,2.114c-4.66,1.243-9.461,2.947-14.402,5.111l-0.46-13.408
		c1.855-0.748,3.924-1.488,6.208-2.222c2.283-0.733,4.697-1.401,7.241-2.001c2.544-0.601,5.205-1.105,7.985-1.515
		c2.778-0.407,5.591-0.662,8.438-0.759c5.18-0.178,9.868,0.231,14.064,1.227c4.194,0.997,7.77,2.612,10.726,4.847
		c2.955,2.237,5.262,5.093,6.921,8.569c1.658,3.478,2.569,7.607,2.733,12.389l2.03,59.096L142.581,168.079z M139.618,129.107
		l-18.874,0.648c-3.701,0.127-6.876,0.607-9.526,1.438c-2.651,0.833-4.806,1.961-6.467,3.386c-1.661,1.425-2.873,3.106-3.632,5.041
		c-0.76,1.937-1.099,4.099-1.017,6.49c0.057,1.652,0.368,3.223,0.932,4.713c0.564,1.492,1.435,2.802,2.614,3.929
		c1.178,1.128,2.69,2.002,4.536,2.623c1.844,0.621,4.077,0.886,6.696,0.796c3.416-0.117,7.294-1.29,11.635-3.521
		c4.34-2.229,8.881-5.677,13.624-10.343L139.618,129.107z"/>
	<path fill="#33CCFF" d="M155.196,81.804l16.908-0.581l22.956,55.983l5.001,13.68l4.21-14.338l18.902-57.079l16.311-0.561
		l-30.702,86.896l-17.08,0.587L155.196,81.804z"/>
	<path fill="#33CCFF" d="M271.521,90.121l-25.363,0.871l-0.423-12.297l40.395-1.388l2.52,73.357l25.534-0.877l0.425,12.383
		l-68.746,2.361l-0.425-12.383l28.182-0.968L271.521,90.121z M275.073,41.691c1.65-0.057,3.198,0.19,4.643,0.738
		c1.443,0.55,2.71,1.348,3.802,2.392c1.09,1.046,1.958,2.256,2.604,3.63c0.646,1.375,0.997,2.887,1.054,4.538
		c0.055,1.595-0.191,3.114-0.741,4.557c-0.549,1.444-1.332,2.726-2.348,3.842c-1.017,1.119-2.227,2-3.628,2.647
		c-1.403,0.646-2.931,0.998-4.581,1.055c-1.651,0.057-3.199-0.19-4.643-0.738c-1.444-0.549-2.711-1.345-3.801-2.392
		c-1.092-1.044-1.959-2.269-2.605-3.672c-0.647-1.402-0.997-2.901-1.052-4.496c-0.058-1.65,0.188-3.183,0.739-4.599
		c0.55-1.416,1.332-2.682,2.349-3.8c1.016-1.117,2.226-2,3.629-2.647C271.894,42.1,273.421,41.748,275.073,41.691z"/>
	<path fill="#33CCFF" d="M317.74,120.938c-0.25-7.287,0.523-13.796,2.322-19.532c1.797-5.732,4.467-10.612,8.004-14.638
		c3.539-4.025,7.849-7.138,12.933-9.336c5.082-2.197,10.784-3.405,17.104-3.623c2.732-0.094,5.429-0.015,8.088,0.235
		s5.282,0.703,7.869,1.354l-1.237-36.039l14.944-0.513l4.145,120.668l-13.321,0.458l-1.07-16.208
		c-3.949,6.178-8.294,10.801-13.033,13.871c-4.739,3.069-9.927,4.702-15.563,4.895c-4.896,0.168-9.244-0.708-13.043-2.63
		c-3.8-1.921-7.002-4.704-9.606-8.348c-2.604-3.644-4.624-8.063-6.056-13.259C318.785,133.1,317.959,127.314,317.74,120.938z
		 M332.909,119.476c0.356,10.363,2.145,18.039,5.365,23.029c3.221,4.992,7.621,7.391,13.201,7.199
		c3.757-0.129,7.671-1.944,11.739-5.448c4.069-3.502,8.297-8.635,12.681-15.398l-1.366-39.796c-2.488-1.054-5.222-1.83-8.202-2.326
		c-2.981-0.496-5.924-0.694-8.827-0.595c-8.085,0.278-14.3,3.114-18.646,8.507C334.507,100.042,332.526,108.318,332.909,119.476z"/>
	<path fill="#33CCFF" d="M544.239,55.531l-47.397,1.628l1.243,36.209l44.922-1.543l0.437,12.724l-44.921,1.543l1.707,49.702
		l-15.541,0.534l-3.834-111.616l62.938-2.162L544.239,55.531z"/>
	<path fill="#33CCFF" d="M560.071,67.898l13.578-0.466l0.97,15.784c4.857-6.266,9.701-10.85,14.533-13.752
		c4.83-2.902,9.75-4.438,14.76-4.611c8.882-0.305,15.713,2.339,20.494,7.931c4.779,5.594,7.194,14.061,7.242,25.401l-15.03,0.516
		c-0.087-7.521-1.372-12.934-3.85-16.241c-2.479-3.305-5.997-4.881-10.551-4.725c-1.994,0.069-3.987,0.494-5.983,1.275
		c-1.997,0.782-4.036,1.991-6.116,3.63c-2.082,1.64-4.277,3.725-6.584,6.254c-2.307,2.531-4.766,5.579-7.38,9.145l1.892,55.082
		l-15.03,0.517L560.071,67.898z"/>
	<path fill="#33CCFF" d="M664.867,76.61l-25.362,0.871l-0.422-12.297l40.393-1.387l2.52,73.357l25.535-0.877l0.425,12.383
		l-68.747,2.361l-0.425-12.383l28.182-0.968L664.867,76.61z M668.419,28.181c1.651-0.057,3.199,0.189,4.644,0.738
		c1.443,0.55,2.71,1.348,3.801,2.392c1.09,1.046,1.959,2.256,2.604,3.63s0.996,2.887,1.054,4.538
		c0.055,1.595-0.192,3.114-0.741,4.557c-0.549,1.444-1.332,2.726-2.348,3.842c-1.017,1.119-2.227,2-3.629,2.647
		c-1.402,0.646-2.93,0.998-4.581,1.055c-1.651,0.057-3.198-0.19-4.642-0.738c-1.444-0.549-2.711-1.346-3.802-2.392
		c-1.091-1.044-1.959-2.269-2.604-3.672c-0.647-1.402-0.998-2.901-1.053-4.496c-0.057-1.65,0.189-3.183,0.74-4.599
		c0.549-1.416,1.331-2.682,2.348-3.8c1.017-1.117,2.227-2,3.63-2.647C665.241,28.59,666.768,28.238,668.419,28.181z"/>
	<path fill="#33CCFF" d="M787.644,98.471c0.072,2.107,0.104,3.873,0.096,5.297c-0.008,1.426-0.047,2.767-0.117,4.022l-60.207,2.068
		c0.301,8.769,2.98,15.416,8.039,19.945c5.057,4.528,12.198,6.635,21.421,6.318c2.505-0.086,5.005-0.271,7.505-0.557
		c2.497-0.285,4.907-0.639,7.23-1.061c2.322-0.422,4.543-0.883,6.664-1.383c2.12-0.5,4.082-1.038,5.887-1.613l0.42,12.212
		c-4.005,1.278-8.541,2.36-13.611,3.246c-5.071,0.887-10.34,1.424-15.806,1.612c-7.344,0.252-13.697-0.527-19.061-2.338
		c-5.363-1.81-9.805-4.55-13.321-8.221c-3.518-3.669-6.182-8.222-7.993-13.662c-1.812-5.438-2.835-11.629-3.074-18.576
		c-0.207-6.034,0.463-11.772,2.016-17.212c1.552-5.439,3.924-10.252,7.115-14.438c3.189-4.184,7.163-7.556,11.921-10.114
		c4.756-2.557,10.21-3.941,16.358-4.152c5.978-0.206,11.306,0.552,15.981,2.272c4.677,1.721,8.652,4.25,11.931,7.585
		c3.279,3.337,5.813,7.439,7.604,12.307C786.434,86.899,787.435,92.38,787.644,98.471z M772.112,96.867
		c0.041-3.819-0.451-7.294-1.469-10.423c-1.021-3.128-2.523-5.798-4.508-8.01c-1.986-2.211-4.423-3.909-7.313-5.093
		c-2.893-1.183-6.216-1.71-9.973-1.581c-3.246,0.111-6.186,0.84-8.817,2.184c-2.634,1.346-4.88,3.19-6.736,5.533
		c-1.858,2.344-3.329,5.131-4.414,8.359c-1.087,3.23-1.707,6.757-1.861,10.581L772.112,96.867z"/>
	<path fill="#33CCFF" d="M821.004,36.192l-25.362,0.872l-0.42-12.212l40.393-1.388l3.72,108.286l25.535-0.877l0.425,12.383
		l-68.747,2.361l-0.425-12.383l28.182-0.968L821.004,36.192z"/>
</g>
<g>
</g>
<g>
</g>
<g>
</g>
<g>
</g>
<g>
</g>
<g>
</g>
<g>
</g>
<g>
</g>
<g>
</g>
<g>
</g>
<g>
</g>
<g>
</g>
<g>
</g>
<g>
</g>
<g>
</g>
</svg>
