<?xml version="1.0" encoding="utf-8"?>
<!-- Generator: Adobe Illustrator 16.0.0, SVG Export Plug-In . SVG Version: 6.00 Build 0)  -->
<!DOCTYPE svg PUBLIC "-//W3C//DTD SVG 1.1//EN" "http://www.w3.org/Graphics/SVG/1.1/DTD/svg11.dtd">
<svg version="1.1" id="Ebene_1" xmlns="http://www.w3.org/2000/svg" xmlns:xlink="http://www.w3.org/1999/xlink" x="0px" y="0px"
	 width="276px" height="861.667px" viewBox="0 0 276 861.667" enable-background="new 0 0 276 861.667" xml:space="preserve">
<g>
	<path fill="#33CCFF" d="M124.932,778.822c5.352,0.186,10.461,0.777,15.328,1.771c4.868,0.997,9.376,2.479,13.525,4.447
		c4.15,1.969,7.896,4.464,11.239,7.486c3.345,3.024,6.166,6.686,8.467,10.982c2.303,4.299,4.025,9.262,5.169,14.887
		c1.144,5.627,1.592,11.997,1.344,19.113l-0.831,23.911l-111.615-3.882l1.001-28.779c0.606-17.421,5.542-30.259,14.807-38.516
		C92.629,781.987,106.485,778.18,124.932,778.822z M125.485,794.83c-7.912-0.275-14.629,0.232-20.146,1.521
		c-5.517,1.291-10.007,3.387-13.472,6.286c-3.463,2.901-6.028,6.603-7.696,11.104c-1.666,4.502-2.607,9.826-2.821,15.976
		l-0.454,13.065l85.653,2.979l0.396-11.357C167.828,809.014,154.009,795.822,125.485,794.83z"/>
	<path fill="#33CCFF" d="M183.977,723.316l-11.541-0.061c4.449,4.83,7.614,9.686,9.497,14.566c1.882,4.884,2.731,9.971,2.547,15.266
		c-0.17,4.896-0.942,9.06-2.315,12.488c-1.372,3.43-3.194,6.23-5.465,8.402c-2.27,2.174-4.903,3.734-7.901,4.685
		c-2.996,0.951-6.23,1.364-9.704,1.244c-8.596-0.299-15.218-3.735-19.863-10.31c-4.645-6.574-6.749-16.123-6.313-28.648
		l0.618-17.764l-7.515-0.261c-5.066-0.177-9.18,1.306-12.339,4.444c-3.158,3.139-4.854,8.039-5.086,14.7
		c-0.168,4.84,0.208,9.626,1.125,14.36c0.92,4.734,2.288,9.643,4.105,14.721l-13.407-0.466c-0.618-1.903-1.214-4.019-1.788-6.347
		s-1.074-4.783-1.497-7.362c-0.423-2.58-0.743-5.27-0.96-8.071c-0.214-2.799-0.274-5.623-0.175-8.471
		c0.18-5.18,0.912-9.828,2.195-13.945c1.283-4.115,3.142-7.57,5.575-10.365c2.436-2.793,5.444-4.898,9.026-6.313
		c3.584-1.414,7.767-2.039,12.549-1.872l59.095,2.056L183.977,723.316z M144.893,723.581l-0.656,18.873
		c-0.129,3.701,0.132,6.902,0.777,9.603c0.648,2.703,1.625,4.931,2.932,6.687c1.307,1.755,2.899,3.079,4.778,3.971
		c1.88,0.892,4.013,1.379,6.404,1.462c1.651,0.058,3.24-0.143,4.766-0.604c1.527-0.459,2.895-1.238,4.101-2.337
		c1.207-1.097,2.183-2.545,2.93-4.344c0.746-1.798,1.165-4.006,1.256-6.626c0.119-3.416-0.782-7.365-2.708-11.85
		c-1.924-4.484-5.05-9.252-9.378-14.307L144.893,723.581z"/>
	<path fill="#33CCFF" d="M98.778,704.774l0.588-16.909l57.435-19.035l13.992-4.045l-14.013-5.189l-55.638-22.798l0.567-16.311
		l84.568,36.628l-0.594,17.08L98.778,704.774z"/>
	<path fill="#33CCFF" d="M67.038,582.413c0.058-1.65,0.41-3.177,1.058-4.58c0.647-1.402,1.53-2.611,2.647-3.628
		c1.119-1.015,2.387-1.798,3.802-2.346c1.416-0.55,2.949-0.795,4.6-0.738c1.595,0.056,3.093,0.406,4.495,1.055
		c1.403,0.646,2.627,1.516,3.671,2.606c1.046,1.092,1.842,2.36,2.391,3.803c0.548,1.444,0.794,2.992,0.736,4.643
		c-0.058,1.652-0.41,3.178-1.057,4.58c-0.648,1.403-1.53,2.612-2.649,3.627c-1.117,1.017-2.398,1.798-3.843,2.346
		s-2.963,0.795-4.558,0.739c-1.65-0.057-3.163-0.409-4.537-1.056c-1.374-0.646-2.584-1.514-3.63-2.605
		c-1.044-1.091-1.841-2.358-2.39-3.803C67.227,585.612,66.98,584.065,67.038,582.413z M115.106,589.301l-0.882,25.363l-12.298-0.428
		l1.405-40.394l73.356,2.551l0.889-25.534l12.383,0.431l-2.392,68.745l-12.383-0.431l0.98-28.181L115.106,589.301z"/>
	<path fill="#33CCFF" d="M149.041,545.319c-7.286-0.253-13.728-1.474-19.324-3.665c-5.595-2.188-10.278-5.188-14.051-8.996
		c-3.771-3.808-6.579-8.322-8.421-13.546c-1.841-5.222-2.653-10.993-2.434-17.313c0.096-2.732,0.359-5.417,0.794-8.053
		c0.433-2.634,1.065-5.221,1.894-7.757l-36.038-1.253l0.521-14.944l120.667,4.197l-0.464,13.322l-16.243-0.051
		c5.891,4.366,10.203,9.02,12.938,13.959c2.736,4.94,4.006,10.228,3.81,15.864c-0.171,4.897-1.346,9.174-3.524,12.831
		c-2.18,3.658-5.176,6.66-8.991,9.006c-3.814,2.348-8.363,4.056-13.646,5.126C161.247,545.117,155.418,545.542,149.041,545.319z
		 M148.631,530.085c10.362,0.361,18.144-0.893,23.344-3.762c5.202-2.867,7.899-7.092,8.094-12.672
		c0.131-3.757-1.41-7.787-4.624-12.088c-3.213-4.302-8.042-8.873-14.486-13.714l-39.795-1.384c-1.224,2.409-2.187,5.083-2.887,8.022
		c-0.701,2.94-1.102,5.861-1.203,8.765c-0.281,8.085,2.119,14.48,7.199,19.189C129.354,527.15,137.473,529.698,148.631,530.085z"/>
	<path fill="#33CCFF" d="M99.43,314.845l-1.648,47.396l36.209,1.26l1.563-44.92l12.724,0.442l-1.563,44.92l49.702,1.729
		l-0.541,15.542l-111.614-3.882l2.188-62.938L99.43,314.845z"/>
	<path fill="#33CCFF" d="M112.86,299.904l0.472-13.577l15.814,0.122c-5.915-5.278-10.154-10.427-12.716-15.448
		c-2.562-5.019-3.755-10.034-3.581-15.044c0.309-8.881,3.419-15.513,9.327-19.896c5.911-4.382,14.524-6.207,25.842-5.471
		l-0.523,15.03c-7.509-0.433-12.998,0.475-16.468,2.719c-3.469,2.245-5.284,5.645-5.442,10.198
		c-0.069,1.994,0.218,4.013,0.858,6.058c0.643,2.046,1.708,4.164,3.199,6.353c1.492,2.189,3.42,4.523,5.784,6.999
		c2.365,2.477,5.236,5.14,8.614,7.995l55.081,1.916l-0.522,15.029L112.86,299.904z"/>
	<path fill="#33CCFF" d="M80.72,189.072c0.058-1.651,0.409-3.178,1.057-4.581c0.647-1.401,1.531-2.61,2.648-3.627
		c1.119-1.014,2.386-1.798,3.801-2.346c1.417-0.55,2.949-0.796,4.6-0.739c1.595,0.056,3.094,0.407,4.495,1.055
		c1.403,0.646,2.627,1.517,3.672,2.606c1.046,1.092,1.842,2.36,2.39,3.803c0.548,1.444,0.794,2.992,0.736,4.644
		s-0.41,3.178-1.057,4.579c-0.647,1.403-1.529,2.613-2.648,3.628c-1.118,1.016-2.399,1.798-3.844,2.345
		c-1.443,0.549-2.963,0.795-4.558,0.74c-1.65-0.057-3.162-0.409-4.537-1.056c-1.374-0.646-2.583-1.514-3.629-2.605
		c-1.044-1.09-1.842-2.359-2.391-3.803C80.907,192.271,80.662,190.724,80.72,189.072z M128.788,195.959l-0.883,25.362l-12.297-0.428
		l1.404-40.393l73.356,2.551l0.889-25.534l12.383,0.431l-2.392,68.745l-12.383-0.431l0.98-28.181L128.788,195.959z"/>
	<path fill="#33CCFF" d="M159.073,74.985c2.107,0.073,3.871,0.164,5.292,0.271c1.422,0.105,2.757,0.238,4.004,0.396l-2.094,60.206
		c8.769,0.305,15.585-1.909,20.452-6.644c4.867-4.732,7.461-11.71,7.782-20.933c0.087-2.505,0.075-5.013-0.038-7.526
		c-0.111-2.511-0.298-4.938-0.559-7.286c-0.261-2.346-0.567-4.594-0.92-6.744c-0.353-2.149-0.754-4.144-1.202-5.983l12.212,0.425
		c0.998,4.083,1.765,8.684,2.298,13.803c0.534,5.12,0.707,10.413,0.517,15.878c-0.255,7.345-1.472,13.629-3.647,18.854
		c-2.177,5.226-5.217,9.469-9.122,12.723c-3.902,3.256-8.629,5.6-14.18,7.031c-5.551,1.431-11.798,2.025-18.744,1.783
		c-6.034-0.21-11.713-1.274-17.032-3.198s-9.956-4.621-13.911-8.094c-3.954-3.472-7.044-7.669-9.267-12.593
		c-2.223-4.921-3.228-10.457-3.014-16.606c0.208-5.977,1.332-11.24,3.371-15.785c2.038-4.547,4.836-8.34,8.39-11.38
		c3.555-3.04,7.823-5.285,12.803-6.735C147.445,75.394,152.982,74.773,159.073,74.985z M156.4,90.369
		c-3.808-0.305-7.309-0.054-10.5,0.745c-3.19,0.803-5.958,2.117-8.303,3.944c-2.342,1.828-4.205,4.144-5.585,6.944
		c-1.379,2.803-2.136,6.081-2.266,9.839c-0.113,3.246,0.411,6.229,1.569,8.946c1.16,2.722,2.845,5.089,5.054,7.103
		c2.212,2.016,4.89,3.676,8.035,4.981c3.147,1.309,6.623,2.169,10.427,2.587L156.4,90.369z"/>
	<path fill="#33CCFF" d="M99.247,37.404l-0.882,25.363l-12.212-0.425l1.404-40.393l108.284,3.767l0.889-25.535l12.383,0.431
		l-2.392,68.746l-12.383-0.431l0.98-28.182L99.247,37.404z"/>
</g>
<g>
</g>
<g>
</g>
<g>
</g>
<g>
</g>
<g>
</g>
<g>
</g>
<g>
</g>
<g>
</g>
<g>
</g>
<g>
</g>
<g>
</g>
<g>
</g>
<g>
</g>
<g>
</g>
<g>
</g>
</svg>
